0
SECTION
2
HEADER
9
$INSUNITS
70
4
0
ENDSEC
0
SECTION
2
TABLES
0
TABLE
2
LTYPE
70
2
0
LTYPE
2
CONTINUOUS
70
0
3
Solid line
72
65
73
0
40
0.0
0
LTYPE
2
DASHED
70
0
3
Dashed __ __ __
72
65
73
2
40
3.0
49
2.0
49
-1.0
0
ENDTAB
0
TABLE
2
LAYER
70
2
0
LAYER
2
0
70
0
62
7
6
CONTINUOUS
0
LAYER
2
CONSTRUCTION
70
0
62
7
6
DASHED
0
ENDTAB
0
ENDSEC
0
SECTION
2
ENTITIES
0
POLYLINE
8
CONSTRUCTION
66
1
70
1
0
VERTEX
8
CONSTRUCTION
10
-114.745025634766
20
-25.3999900817871
0
VERTEX
8
CONSTRUCTION
10
-113.842666625977
20
-23.9370803833008
0
VERTEX
8
CONSTRUCTION
10
-112.906463623047
20
-22.6240615844727
0
VERTEX
8
CONSTRUCTION
10
-111.924102783203
20
-21.4479351043701
0
VERTEX
8
CONSTRUCTION
10
-110.883270263672
20
-20.395694732666
0
VERTEX
8
CONSTRUCTION
10
-109.771621704102
20
-19.4543437957764
0
VERTEX
8
CONSTRUCTION
10
-108.576835632324
20
-18.6108798980713
0
VERTEX
8
CONSTRUCTION
10
-107.286590576172
20
-17.8523063659668
0
VERTEX
8
CONSTRUCTION
10
-105.888565063477
20
-17.1656188964844
0
VERTEX
8
CONSTRUCTION
10
-104.370422363281
20
-16.5378189086914
0
VERTEX
8
CONSTRUCTION
10
-102.719848632813
20
-15.955904006958
0
VERTEX
8
CONSTRUCTION
10
-98.9720916748047
20
-14.8777313232422
0
VERTEX
8
CONSTRUCTION
10
-94.5466918945313
20
-13.8270969390869
0
VERTEX
8
CONSTRUCTION
10
-89.3450393676758
20
-12.6999988555908
0
VERTEX
8
CONSTRUCTION
10
-87.8991088867188
20
-12.346736907959
0
VERTEX
8
CONSTRUCTION
10
-86.3753967285156
20
-11.8942136764526
0
VERTEX
8
CONSTRUCTION
10
-83.1109619140625
20
-10.7349605560303
0
VERTEX
8
CONSTRUCTION
10
-79.5844421386719
20
-9.30939960479736
0
VERTEX
8
CONSTRUCTION
10
-75.8285751342773
20
-7.70468759536743
0
VERTEX
8
CONSTRUCTION
10
-71.8760986328125
20
-6.00798320770264
0
VERTEX
8
CONSTRUCTION
10
-67.7597274780273
20
-4.30644559860229
0
VERTEX
8
CONSTRUCTION
10
-63.5121955871582
20
-2.68723154067993
0
VERTEX
8
CONSTRUCTION
10
-59.1662445068359
20
-1.23749995231628
0
VERTEX
8
CONSTRUCTION
10
-56.9665832519531
20
-0.60342705249786
0
VERTEX
8
CONSTRUCTION
10
-54.7545928955078
20
-0.04440906643867
0
VERTEX
8
CONSTRUCTION
10
-52.5343551635742
20
0.42865923047066
0
VERTEX
8
CONSTRUCTION
10
-50.3099670410156
20
0.80488300323486
0
VERTEX
8
CONSTRUCTION
10
-48.085521697998
20
1.07336759567261
0
VERTEX
8
CONSTRUCTION
10
-45.8651084899902
20
1.22321796417236
0
VERTEX
8
CONSTRUCTION
10
-43.6528167724609
20
1.24353981018066
0
VERTEX
8
CONSTRUCTION
10
-41.4527359008789
20
1.12343788146973
0
VERTEX
8
CONSTRUCTION
10
-39.2689590454102
20
0.8520176410675
0
VERTEX
8
CONSTRUCTION
10
-37.105583190918
20
0.41838419437408
0
VERTEX
8
CONSTRUCTION
10
-34.9666900634766
20
-0.18835715949535
0
VERTEX
8
CONSTRUCTION
10
-32.8563766479492
20
-0.97910118103027
0
VERTEX
8
CONSTRUCTION
10
-30.7787342071533
20
-1.96474277973175
0
VERTEX
8
CONSTRUCTION
10
-28.7378540039063
20
-3.15617656707764
0
VERTEX
8
CONSTRUCTION
10
-26.7378253936768
20
-4.56429767608643
0
VERTEX
8
CONSTRUCTION
10
-24.7827396392822
20
-6.19999980926514
0
VERTEX
8
CONSTRUCTION
10
-23.0022125244141
20
-7.98322200775146
0
VERTEX
8
CONSTRUCTION
10
-21.5148086547852
20
-9.82290649414063
0
VERTEX
8
CONSTRUCTION
10
-20.3080368041992
20
-11.713454246521
0
VERTEX
8
CONSTRUCTION
10
-19.3694038391113
20
-13.6492681503296
0
VERTEX
8
CONSTRUCTION
10
-18.6864242553711
20
-15.6247482299805
0
VERTEX
8
CONSTRUCTION
10
-18.2466087341309
20
-17.6342964172363
0
VERTEX
8
CONSTRUCTION
10
-18.0374641418457
20
-19.6723136901855
0
VERTEX
8
CONSTRUCTION
10
-18.046501159668
20
-21.7332019805908
0
VERTEX
8
CONSTRUCTION
10
-18.2612323760986
20
-23.8113632202148
0
VERTEX
8
CONSTRUCTION
10
-18.6691665649414
20
-25.9011993408203
0
VERTEX
8
CONSTRUCTION
10
-19.2578163146973
20
-27.9971122741699
0
VERTEX
8
CONSTRUCTION
10
-20.0146903991699
20
-30.0935020446777
0
VERTEX
8
CONSTRUCTION
10
-20.9272975921631
20
-32.1847724914551
0
VERTEX
8
CONSTRUCTION
10
-21.9831504821777
20
-34.2653198242188
0
VERTEX
8
CONSTRUCTION
10
-23.1697540283203
20
-36.3295516967773
0
VERTEX
8
CONSTRUCTION
10
-24.4746265411377
20
-38.3718719482422
0
VERTEX
8
CONSTRUCTION
10
-25.8852729797363
20
-40.3866767883301
0
VERTEX
8
CONSTRUCTION
10
-27.3892059326172
20
-42.3683624267578
0
VERTEX
8
CONSTRUCTION
10
-28.973934173584
20
-44.3113403320313
0
VERTEX
8
CONSTRUCTION
10
-30.6269683837891
20
-46.2100067138672
0
VERTEX
8
CONSTRUCTION
10
-34.0880012512207
20
-49.8520164489746
0
VERTEX
8
CONSTRUCTION
10
-37.6723785400391
20
-53.2496070861816
0
VERTEX
8
CONSTRUCTION
10
-41.2801895141602
20
-56.3579864501953
0
VERTEX
8
CONSTRUCTION
10
-44.8115119934082
20
-59.1323699951172
0
VERTEX
8
CONSTRUCTION
10
-48.1664276123047
20
-61.5279693603516
0
VERTEX
8
CONSTRUCTION
10
-51.2450256347656
20
-63.4999961853027
0
VERTEX
8
CONSTRUCTION
10
-52.7700805664063
20
-64.3328247070313
0
VERTEX
8
CONSTRUCTION
10
-54.4314117431641
20
-65.0874404907227
0
VERTEX
8
CONSTRUCTION
10
-56.2189788818359
20
-65.7660064697266
0
VERTEX
8
CONSTRUCTION
10
-58.1227340698242
20
-66.3706512451172
0
VERTEX
8
CONSTRUCTION
10
-60.1326293945313
20
-66.903564453125
0
VERTEX
8
CONSTRUCTION
10
-62.2386169433594
20
-67.3668746948242
0
VERTEX
8
CONSTRUCTION
10
-64.4306488037109
20
-67.7627563476563
0
VERTEX
8
CONSTRUCTION
10
-66.6986846923828
20
-68.0933532714844
0
VERTEX
8
CONSTRUCTION
10
-71.4225769042969
20
-68.5673446655273
0
VERTEX
8
CONSTRUCTION
10
-76.3299102783203
20
-68.8060989379883
0
VERTEX
8
CONSTRUCTION
10
-81.3403244018555
20
-68.8268585205078
0
VERTEX
8
CONSTRUCTION
10
-86.3734283447266
20
-68.6468658447266
0
VERTEX
8
CONSTRUCTION
10
-91.3488616943359
20
-68.2833862304688
0
VERTEX
8
CONSTRUCTION
10
-96.1862640380859
20
-67.7536468505859
0
VERTEX
8
CONSTRUCTION
10
-100.805236816406
20
-67.0749206542969
0
VERTEX
8
CONSTRUCTION
10
-105.125427246094
20
-66.2644424438477
0
VERTEX
8
CONSTRUCTION
10
-109.066452026367
20
-65.3394622802734
0
VERTEX
8
CONSTRUCTION
10
-112.54793548584
20
-64.3172225952148
0
VERTEX
8
CONSTRUCTION
10
-115.489524841309
20
-63.2149810791016
0
VERTEX
8
CONSTRUCTION
10
-116.732734680176
20
-62.6392517089844
0
VERTEX
8
CONSTRUCTION
10
-117.810829162598
20
-62.0499877929688
0
VERTEX
8
CONSTRUCTION
10
-118.746643066406
20
-61.4095077514648
0
VERTEX
8
CONSTRUCTION
10
-119.572601318359
20
-60.6823043823242
0
VERTEX
8
CONSTRUCTION
10
-120.293029785156
20
-59.8737945556641
0
VERTEX
8
CONSTRUCTION
10
-120.912261962891
20
-58.989387512207
0
VERTEX
8
CONSTRUCTION
10
-121.434631347656
20
-58.0345077514648
0
VERTEX
8
CONSTRUCTION
10
-121.864456176758
20
-57.0145645141602
0
VERTEX
8
CONSTRUCTION
10
-122.206069946289
20
-55.9349784851074
0
VERTEX
8
CONSTRUCTION
10
-122.463806152344
20
-54.8011589050293
0
VERTEX
8
CONSTRUCTION
10
-122.64200592041
20
-53.618522644043
0
VERTEX
8
CONSTRUCTION
10
-122.744979858398
20
-52.3924865722656
0
VERTEX
8
CONSTRUCTION
10
-122.742599487305
20
-49.8318748474121
0
VERTEX
8
CONSTRUCTION
10
-122.491325378418
20
-47.1626396179199
0
VERTEX
8
CONSTRUCTION
10
-122.025787353516
20
-44.4281120300293
0
VERTEX
8
CONSTRUCTION
10
-121.38062286377
20
-41.6716117858887
0
VERTEX
8
CONSTRUCTION
10
-120.590484619141
20
-38.9364585876465
0
VERTEX
8
CONSTRUCTION
10
-119.690017700195
20
-36.265983581543
0
VERTEX
8
CONSTRUCTION
10
-118.713836669922
20
-33.7035026550293
0
VERTEX
8
CONSTRUCTION
10
-117.69660949707
20
-31.2923412322998
0
VERTEX
8
CONSTRUCTION
10
-116.672973632813
20
-29.0758190155029
0
VERTEX
8
CONSTRUCTION
10
-115.677558898926
20
-27.097261428833
0
VERTEX
8
CONSTRUCTION
10
-114.745025634766
20
-25.3999900817871
0
SEQEND
0
LINE
8
CONSTRUCTION
10
50.5774841308594
20
-0.00114038435277
11
50.5774841308594
21
-63.5
0
POLYLINE
8
CONSTRUCTION
66
1
70
1
0
VERTEX
8
CONSTRUCTION
10
215.899993896484
20
-25.3999900817871
0
VERTEX
8
CONSTRUCTION
10
214.997634887695
20
-23.9370803833008
0
VERTEX
8
CONSTRUCTION
10
214.061431884766
20
-22.6240615844727
0
VERTEX
8
CONSTRUCTION
10
213.079071044922
20
-21.4479351043701
0
VERTEX
8
CONSTRUCTION
10
212.038238525391
20
-20.395694732666
0
VERTEX
8
CONSTRUCTION
10
210.92658996582
20
-19.4543437957764
0
VERTEX
8
CONSTRUCTION
10
209.731796264648
20
-18.6108798980713
0
VERTEX
8
CONSTRUCTION
10
208.441543579102
20
-17.8523063659668
0
VERTEX
8
CONSTRUCTION
10
207.043518066406
20
-17.1656188964844
0
VERTEX
8
CONSTRUCTION
10
205.525375366211
20
-16.5378189086914
0
VERTEX
8
CONSTRUCTION
10
203.874801635742
20
-15.955904006958
0
VERTEX
8
CONSTRUCTION
10
200.127059936523
20
-14.8777313232422
0
VERTEX
8
CONSTRUCTION
10
195.70166015625
20
-13.8270969390869
0
VERTEX
8
CONSTRUCTION
10
190.5
20
-12.6999988555908
0
VERTEX
8
CONSTRUCTION
10
189.054077148438
20
-12.346736907959
0
VERTEX
8
CONSTRUCTION
10
187.530364990234
20
-11.8942136764526
0
VERTEX
8
CONSTRUCTION
10
184.265930175781
20
-10.7349605560303
0
VERTEX
8
CONSTRUCTION
10
180.739410400391
20
-9.30939960479736
0
VERTEX
8
CONSTRUCTION
10
176.983551025391
20
-7.70468759536743
0
VERTEX
8
CONSTRUCTION
10
173.031066894531
20
-6.00798320770264
0
VERTEX
8
CONSTRUCTION
10
168.914703369141
20
-4.30644559860229
0
VERTEX
8
CONSTRUCTION
10
164.66716003418
20
-2.68723154067993
0
VERTEX
8
CONSTRUCTION
10
160.321212768555
20
-1.23749995231628
0
VERTEX
8
CONSTRUCTION
10
158.121551513672
20
-0.60342705249786
0
VERTEX
8
CONSTRUCTION
10
155.909561157227
20
-0.04440906643867
0
VERTEX
8
CONSTRUCTION
10
153.689331054688
20
0.42865923047066
0
VERTEX
8
CONSTRUCTION
10
151.464935302734
20
0.80488300323486
0
VERTEX
8
CONSTRUCTION
10
149.240478515625
20
1.07336759567261
0
VERTEX
8
CONSTRUCTION
10
147.020065307617
20
1.22321796417236
0
VERTEX
8
CONSTRUCTION
10
144.807769775391
20
1.24353981018066
0
VERTEX
8
CONSTRUCTION
10
142.607696533203
20
1.12343788146973
0
VERTEX
8
CONSTRUCTION
10
140.423934936523
20
0.8520176410675
0
VERTEX
8
CONSTRUCTION
10
138.260559082031
20
0.41838419437408
0
VERTEX
8
CONSTRUCTION
10
136.121673583984
20
-0.18835715949535
0
VERTEX
8
CONSTRUCTION
10
134.011352539063
20
-0.97910118103027
0
VERTEX
8
CONSTRUCTION
10
131.933715820313
20
-1.96474277973175
0
VERTEX
8
CONSTRUCTION
10
129.892837524414
20
-3.15617656707764
0
VERTEX
8
CONSTRUCTION
10
127.892799377441
20
-4.56429767608643
0
VERTEX
8
CONSTRUCTION
10
125.937705993652
20
-6.19999980926514
0
VERTEX
8
CONSTRUCTION
10
124.157180786133
20
-7.98322200775146
0
VERTEX
8
CONSTRUCTION
10
122.669769287109
20
-9.82290649414063
0
VERTEX
8
CONSTRUCTION
10
121.462997436523
20
-11.713454246521
0
VERTEX
8
CONSTRUCTION
10
120.524368286133
20
-13.6492681503296
0
VERTEX
8
CONSTRUCTION
10
119.841384887695
20
-15.6247491836548
0
VERTEX
8
CONSTRUCTION
10
119.401565551758
20
-17.6342964172363
0
VERTEX
8
CONSTRUCTION
10
119.192428588867
20
-19.6723155975342
0
VERTEX
8
CONSTRUCTION
10
119.201461791992
20
-21.7332057952881
0
VERTEX
8
CONSTRUCTION
10
119.416198730469
20
-23.8113670349121
0
VERTEX
8
CONSTRUCTION
10
119.82413482666
20
-25.9012050628662
0
VERTEX
8
CONSTRUCTION
10
120.412780761719
20
-27.9971199035645
0
VERTEX
8
CONSTRUCTION
10
121.169654846191
20
-30.0935096740723
0
VERTEX
8
CONSTRUCTION
10
122.082260131836
20
-32.1847801208496
0
VERTEX
8
CONSTRUCTION
10
123.138107299805
20
-34.2653274536133
0
VERTEX
8
CONSTRUCTION
10
124.324722290039
20
-36.3295593261719
0
VERTEX
8
CONSTRUCTION
10
125.629592895508
20
-38.3718795776367
0
VERTEX
8
CONSTRUCTION
10
127.040237426758
20
-40.3866844177246
0
VERTEX
8
CONSTRUCTION
10
128.544158935547
20
-42.3683700561523
0
VERTEX
8
CONSTRUCTION
10
130.128890991211
20
-44.3113479614258
0
VERTEX
8
CONSTRUCTION
10
131.781936645508
20
-46.2100143432617
0
VERTEX
8
CONSTRUCTION
10
135.242980957031
20
-49.8520240783691
0
VERTEX
8
CONSTRUCTION
10
138.827346801758
20
-53.2496109008789
0
VERTEX
8
CONSTRUCTION
10
142.435150146484
20
-56.3579902648926
0
VERTEX
8
CONSTRUCTION
10
145.96647644043
20
-59.1323699951172
0
VERTEX
8
CONSTRUCTION
10
149.321395874023
20
-61.5279693603516
0
VERTEX
8
CONSTRUCTION
10
152.399993896484
20
-63.5
0
VERTEX
8
CONSTRUCTION
10
153.925048828125
20
-64.3328323364258
0
VERTEX
8
CONSTRUCTION
10
155.586395263672
20
-65.0874481201172
0
VERTEX
8
CONSTRUCTION
10
157.373962402344
20
-65.7660064697266
0
VERTEX
8
CONSTRUCTION
10
159.277709960938
20
-66.3706512451172
0
VERTEX
8
CONSTRUCTION
10
161.287612915039
20
-66.903564453125
0
VERTEX
8
CONSTRUCTION
10
163.393600463867
20
-67.3668746948242
0
VERTEX
8
CONSTRUCTION
10
165.585632324219
20
-67.7627563476563
0
VERTEX
8
CONSTRUCTION
10
167.853668212891
20
-68.0933532714844
0
VERTEX
8
CONSTRUCTION
10
172.577560424805
20
-68.5673446655273
0
VERTEX
8
CONSTRUCTION
10
177.484893798828
20
-68.8060989379883
0
VERTEX
8
CONSTRUCTION
10
182.495300292969
20
-68.8268585205078
0
VERTEX
8
CONSTRUCTION
10
187.528396606445
20
-68.6468658447266
0
VERTEX
8
CONSTRUCTION
10
192.503829956055
20
-68.2833862304688
0
VERTEX
8
CONSTRUCTION
10
197.341232299805
20
-67.7536468505859
0
VERTEX
8
CONSTRUCTION
10
201.960205078125
20
-67.0749206542969
0
VERTEX
8
CONSTRUCTION
10
206.280395507813
20
-66.2644424438477
0
VERTEX
8
CONSTRUCTION
10
210.221405029297
20
-65.3394622802734
0
VERTEX
8
CONSTRUCTION
10
213.702911376953
20
-64.3172225952148
0
VERTEX
8
CONSTRUCTION
10
216.644485473633
20
-63.2149810791016
0
VERTEX
8
CONSTRUCTION
10
217.8876953125
20
-62.6392517089844
0
VERTEX
8
CONSTRUCTION
10
218.965789794922
20
-62.0499877929688
0
VERTEX
8
CONSTRUCTION
10
219.901611328125
20
-61.4095077514648
0
VERTEX
8
CONSTRUCTION
10
220.727569580078
20
-60.6823043823242
0
VERTEX
8
CONSTRUCTION
10
221.447982788086
20
-59.8737945556641
0
VERTEX
8
CONSTRUCTION
10
222.06721496582
20
-58.989387512207
0
VERTEX
8
CONSTRUCTION
10
222.589584350586
20
-58.0345077514648
0
VERTEX
8
CONSTRUCTION
10
223.019409179688
20
-57.0145645141602
0
VERTEX
8
CONSTRUCTION
10
223.361022949219
20
-55.9349784851074
0
VERTEX
8
CONSTRUCTION
10
223.618759155273
20
-54.8011589050293
0
VERTEX
8
CONSTRUCTION
10
223.796936035156
20
-53.618522644043
0
VERTEX
8
CONSTRUCTION
10
223.899932861328
20
-52.3924865722656
0
VERTEX
8
CONSTRUCTION
10
223.897567749023
20
-49.8318748474121
0
VERTEX
8
CONSTRUCTION
10
223.646301269531
20
-47.1626396179199
0
VERTEX
8
CONSTRUCTION
10
223.180755615234
20
-44.4281120300293
0
VERTEX
8
CONSTRUCTION
10
222.535583496094
20
-41.6716117858887
0
VERTEX
8
CONSTRUCTION
10
221.745452880859
20
-38.9364585876465
0
VERTEX
8
CONSTRUCTION
10
220.844970703125
20
-36.265983581543
0
VERTEX
8
CONSTRUCTION
10
219.868804931641
20
-33.7035026550293
0
VERTEX
8
CONSTRUCTION
10
218.8515625
20
-31.2923412322998
0
VERTEX
8
CONSTRUCTION
10
217.827926635742
20
-29.0758190155029
0
VERTEX
8
CONSTRUCTION
10
216.83251953125
20
-27.097261428833
0
VERTEX
8
CONSTRUCTION
10
215.899993896484
20
-25.3999900817871
0
SEQEND
0
ENDSEC
0
EOF
